<?xml version="1.0" encoding="utf-8"?>
<!-- Generator: Adobe Illustrator 25.2.3, SVG Export Plug-In . SVG Version: 6.00 Build 0)  -->
<svg version="1.1" id="Layer_1" xmlns="http://www.w3.org/2000/svg" xmlns:xlink="http://www.w3.org/1999/xlink" x="0px" y="0px"
	 viewBox="0 0 442.6 442.5" style="enable-background:new 0 0 442.6 442.5;" xml:space="preserve">
<g>
	<g>
		<g>
			<path fill="current" stroke="current" d="M118.2,289c-9.8,9.8-9.8,25.6,0,35.4c9.8,9.8,25.6,9.8,35.4,0c9.7-9.7,9.7-25.6,0-35.4C143.8,279.3,128,279.3,118.2,289z
				"/>
			<path fill="current" stroke="current" d="M170.9,307.1c-0.2,19.2-15.8,34.6-35,34.6c-19.3,0-35-15.7-35-35c0-19.2,15.4-34.8,34.6-35l103.4-103.4
				c-40.5-19.2-88.8,1.9-102.4,44.5l-1.3,4.1c-1.1,0.1-57.2-13.2-101.8,31.4c-44.5,44.5-44.5,116.5,0,160.9
				c44.4,44.4,116.6,44.4,160.9,0c25.5-25.5,37.4-62,32-97.6l-0.6-4.2c2.4-1.1,18.6-4.1,33.9-19.5c22.3-22.3,27.9-56.1,14.6-84.2
				L170.9,307.1z M115,402.6c-41.4,0-75-33.6-75-75h10c0,35.8,29.2,65,65,65V402.6z"/>
			<path fill="current" stroke="current" d="M384.3,79.5l-21.2-21.2L147.7,273.7c9.8,3.5,17.7,11.4,21.2,21.2L384.3,79.5z"/>
			<polygon points="442.6,43.8 398.8,0 362.8,43.8 398.8,79.8 			"/>
		</g>
	</g>
</g>
</svg>
